<?xml version="1.0" standalone="no"?><!DOCTYPE svg PUBLIC "-//W3C//DTD SVG 1.1//EN" "http://www.w3.org/Graphics/SVG/1.1/DTD/svg11.dtd"><svg t="1532676354891" class="icon" style="" viewBox="0 0 1024 1024" version="1.1" xmlns="http://www.w3.org/2000/svg" p-id="16002" xmlns:xlink="http://www.w3.org/1999/xlink" width="20" height="20"><defs><style type="text/css"></style></defs><path d="M293.12 834.986667c-5.12 0-10.24-2.133333-13.653333-5.546667L209.493333 759.466667c-3.413333-3.413333-5.546667-8.533333-5.546666-13.226667l-2.986667-157.866667c0-5.12 2.133333-10.24 5.546667-14.08L597.76 183.466667c7.68-7.68 20.053333-7.68 27.306667 0L849.066667 407.466667c3.84 3.84 5.546667 8.533333 5.546666 13.653333s-2.133333 10.24-5.546666 13.653333l-390.826667 390.826667c-3.413333 3.413333-8.106667 5.546667-13.226667 5.546667l-151.466666 3.84h-0.426667z m-50.346667-97.28l58.453334 58.453333 135.253333-3.413333 371.626667-371.626667-196.693334-196.693333-371.2 371.2 2.56 142.08z" fill="#f25d8e" p-id="16003"></path><path d="M301.653333 796.586667l-65.706666-65.706667c-3.84-3.84-9.386667-5.973333-15.36-5.546667-5.546667 0.426667-10.666667 3.413333-14.08 7.68l-49.493334 66.986667c-5.546667 7.68-5.12 18.346667 1.706667 25.173333l10.24 10.24L25.6 979.2c-7.68 7.68-7.68 20.053333 0 27.306667 3.84 3.84 8.96 5.546667 13.653333 5.546666s9.813333-1.706667 13.653334-5.546666L196.266667 863.146667l10.24 10.24c3.84 3.84 8.533333 5.546667 13.653333 5.546666 3.84 0 8.106667-1.28 11.52-3.84L298.666667 825.6c4.693333-3.413333 7.253333-8.533333 7.68-14.08 1.28-5.546667-0.853333-11.093333-4.693334-14.933333z m-78.933333 37.546666l-24.746667-24.746666 26.026667-35.413334 33.706667 33.706667-34.986667 26.453333zM678.4 418.56c-2.986667 0-5.546667-1.28-7.68-3.413333l-53.333333-53.333334c-4.266667-4.266667-4.266667-11.52 0-15.786666s11.52-4.266667 15.786666 0l53.333334 53.333333c4.266667 4.266667 4.266667 11.52 0 15.786667-2.56 2.56-5.12 3.413333-8.106667 3.413333zM548.693333 548.266667c-2.986667 0-5.546667-1.28-7.68-3.413334l-53.333333-53.333333c-4.266667-4.266667-4.266667-11.52 0-15.786667s11.52-4.266667 15.786667 0l53.333333 53.333334c4.266667 4.266667 4.266667 11.52 0 15.786666-2.56 2.56-5.546667 3.413333-8.106667 3.413334zM433.92 663.04c-2.986667 0-5.546667-1.28-7.68-3.413333l-53.333333-53.333334c-4.266667-4.266667-4.266667-11.52 0-15.786666s11.52-4.266667 15.786666 0l53.333334 53.333333c4.266667 4.266667 4.266667 11.52 0 15.786667-2.133333 2.133333-5.12 3.413333-8.106667 3.413333zM779.52 375.893333c-2.986667 0-5.546667-1.28-7.68-3.413333l-111.36-111.36c-4.266667-4.266667-4.266667-11.52 0-15.786667l87.04-87.04c4.266667-4.266667 11.52-4.266667 15.786667 0L874.666667 269.653333c2.133333 2.133333 3.413333 4.693333 3.413333 7.68s-1.28 5.973333-3.413333 7.68l-87.04 87.04c-2.56 2.986667-5.546667 3.84-8.106667 3.84z m-96-122.453333l96 96 71.253333-71.253333-96-96-71.253333 71.253333z" fill="#f25d8e" p-id="16004"></path><path d="M699.306667 556.373333c-2.986667 0-5.546667-1.28-7.68-3.413333L479.573333 341.333333c-4.266667-4.266667-4.266667-11.52 0-15.786666s11.52-4.266667 15.786667 0l211.626667 211.626666c4.266667 4.266667 4.266667 11.52 0 15.786667-2.133333 2.133333-5.12 3.413333-7.68 3.413333z" fill="#f25d8e" p-id="16005"></path><path d="M920.746667 343.04c-5.12 0-9.813333-1.706667-13.653334-5.546667L689.066667 119.466667c-3.84-3.84-5.546667-8.533333-5.546667-13.653334s2.133333-10.24 5.546667-13.653333l69.973333-69.973333c7.68-7.68 20.053333-7.68 27.306667 0l218.026666 218.026666c3.84 3.84 5.546667 8.533333 5.546667 13.653334 0 5.12-2.133333 10.24-5.546667 13.653333L934.4 337.493333c-3.84 3.413333-8.533333 5.546667-13.653333 5.546667z m-190.293334-237.226667l190.293334 190.293334 42.666666-42.666667-190.293333-190.293333-42.666667 42.666666z" fill="#f25d8e" p-id="16006"></path></svg>