<?xml version="1.0" standalone="no"?><!DOCTYPE svg PUBLIC "-//W3C//DTD SVG 1.1//EN" "http://www.w3.org/Graphics/SVG/1.1/DTD/svg11.dtd"><svg t="1532671420687" class="icon" style="" viewBox="0 0 1248 1024" version="1.1" xmlns="http://www.w3.org/2000/svg" p-id="4694" xmlns:xlink="http://www.w3.org/1999/xlink" width="24.375" height="20"><defs><style type="text/css"></style></defs><path d="M624 136c-344.64 0-624 168.352-624 376s279.36 376 624 376 624-168.352 624-376-279.36-376-624-376zM977.76 752.96c0 1.984 62.432-75.424 12.48-127.392-59.968-67.968-163.712 33.792-163.712 33.792-81.984-161.888-205.568 100.64-205.568 100.64s-107.136-247.392-199.072-97.504c1.984 0-76.256-89.376-154.208-47.392-55.968 55.968 0 130.912 0 130.912-291.808-101.952-310.784-399.744 94.464-521.152-114.432 143.392 210.88 340.768 186.88-11.008l68.96 60.48c0 0 69.472-57.472 69.472-61.472-8 351.776 299.808 145.408 195.872 15.488 365.728 105.856 428.192 358.72 94.432 524.608z" p-id="4695" fill="#f25d8e"></path></svg>