<?xml version="1.0" standalone="no"?><!DOCTYPE svg PUBLIC "-//W3C//DTD SVG 1.1//EN" "http://www.w3.org/Graphics/SVG/1.1/DTD/svg11.dtd"><svg t="1532676299126" class="icon" style="" viewBox="0 0 1024 1024" version="1.1" xmlns="http://www.w3.org/2000/svg" p-id="14231" xmlns:xlink="http://www.w3.org/1999/xlink" width="20" height="20"><defs><style type="text/css"></style></defs><path d="M384 682.666667 213.333333 682.666667c-47.061333 0-85.333333-38.272-85.333333-85.333333l0-213.333333c0-23.552 19.114667-42.666667 42.666667-42.666667l256 0c23.509333 0 42.666667 19.114667 42.666667 42.666667l0 213.333333C469.333333 644.394667 431.061333 682.666667 384 682.666667L384 682.666667zM170.709333 426.666667l0 170.666667c0 23.552 19.157333 42.666667 42.666667 42.666667l170.666667 0c23.509333 0 42.666667-19.114667 42.666667-42.666667l0-170.666667L170.709333 426.666667z" p-id="14232" fill="#f25d8e"></path><path d="M810.666667 682.666667l-170.666667 0c-47.061333 0-85.333333-38.272-85.333333-85.333333L554.666667 384c0-23.552 19.114667-42.666667 42.666667-42.666667l256 0c23.552 0 42.666667 19.114667 42.666667 42.666667l0 213.333333C896 644.394667 857.685333 682.666667 810.666667 682.666667L810.666667 682.666667zM597.376 426.666667l0 170.666667c0 23.552 19.114667 42.666667 42.666667 42.666667L810.666667 640c23.552 0 42.666667-19.114667 42.666667-42.666667l0-170.666667L597.376 426.666667z" p-id="14233" fill="#f25d8e"></path><path d="M469.333333 426.666667l85.333333 0 0 85.333333-85.333333 0 0-85.333333Z" p-id="14234" fill="#f25d8e"></path><path d="M896 426.666667l42.666667 0 0 85.333333-42.666667 0 0-85.333333Z" p-id="14235" fill="#f25d8e"></path><path d="M85.333333 426.666667l42.666667 0 0 85.333333-42.666667 0 0-85.333333Z" p-id="14236" fill="#f25d8e"></path></svg>