<?xml version="1.0" standalone="no"?><!DOCTYPE svg PUBLIC "-//W3C//DTD SVG 1.1//EN" "http://www.w3.org/Graphics/SVG/1.1/DTD/svg11.dtd"><svg t="1532500886701" class="icon" style="" viewBox="0 0 1666 1024" version="1.1" xmlns="http://www.w3.org/2000/svg" p-id="12259" xmlns:xlink="http://www.w3.org/1999/xlink" width="22.77734375" height="14"><defs><style type="text/css"></style></defs><path d="M1642.362451 627.754927c-37.790039-124.010032-127.091938-226.886994-225.859692-308.190613-80.716589-66.040846-180.511645-100.602221-254.697528-169.284701-55.621068-51.365102-96.713149-111.315514-164.368327-150.279613h-0.513651c-0.366894 23.774704 10.27302 94.511788-2.641634 111.53565-27.810534 36.689359-125.8445 9.612612-175.521891 12.180867a862.566822 862.566822 0 0 0-442.400287 151.380294C123.643139 449.518022 7.851523 724.321319 0 1023.706485h0.58703c28.324185-72.865066 84.018631-226.079828 175.081619-228.281189 33.460695-0.807166 69.636403 43.073307 102.730204 53.19957 38.89072 11.960731 72.278037 16.803726 112.049302 7.337871 45.20129-10.566535 86.586886-35.44192 124.230168-62.151773a1.247438 1.247438 0 0 0-0.880544-2.27474c-87.027159 12.474382-248.900609-15.116016-266.58488-128.19262-15.116016-96.713149 76.387245-161.433178 159.085059-181.538946 160.18574-38.377069 377.606879 36.249086 486.134002 144.262558 50.411179 52.098889 35.295163 115.938373 8.732067 192.252239l0.440273 0.440273c45.421426-17.537513 100.969115-49.677392 148.73866-56.941885 87.394052-13.354927 159.451953 59.363382 238.480831 87.173916 82.184163 28.911215 199.516732 67.948692 289.112146 50.411179 119.974203-23.114296 93.190971-177.136224 64.426514-271.648011zM1500.007739 748.462917a54.153493 54.153493 0 1 1 54.153494-54.153494 54.080115 54.080115 0 0 1-54.153494 54.153494z" p-id="12260" fill="#409EFF"></path></svg>