<?xml version="1.0" standalone="no"?><!DOCTYPE svg PUBLIC "-//W3C//DTD SVG 1.1//EN" "http://www.w3.org/Graphics/SVG/1.1/DTD/svg11.dtd"><svg t="1532676703250" class="icon" style="" viewBox="0 0 1024 1024" version="1.1" xmlns="http://www.w3.org/2000/svg" p-id="509" xmlns:xlink="http://www.w3.org/1999/xlink" width="18" height="18"><defs><style type="text/css"></style></defs><path d="M754.36032 856.51456l-144.2816 144.2816a71.8848 71.8848 0 0 1-101.66272-101.66272l144.2816-144.2816-119.5008-119.5008c-53.22752 34.83648-114.4832 52.38784-183.72608 52.65408-92.34432 0.36864-170.7008-31.66208-236.25728-97.19808C48.82432 526.41792 15.6672 446.89408 16.01536 354.57024 17.53088 261.05856 50.176 180.14208 115.05664 115.24096 181.10464 49.19296 262.02112 16.5888 354.36544 16.22016c92.3648-0.36864 171.86816 32.80896 236.25728 97.19808 65.536 65.536 97.54624 143.89248 97.19808 236.2368-0.26624 69.26336-17.8176 130.49856-52.6336 183.72608l119.48032 119.5008 144.03584-144.03584a71.8848 71.8848 0 0 1 101.66272 101.66272l-144.03584 144.03584 130.10944 130.10944a72.0896 72.0896 0 0 1-101.9904 101.96992l-130.08896-130.10944zM487.60832 487.79264c38.23616-38.23616 58.01984-83.33312 55.9104-136.41728 2.51904-53.10464-16.91648-98.05824-54.8864-135.9872-36.78208-36.80256-81.7152-56.25856-135.9872-54.8864-51.9168-0.96256-98.16064 17.69472-136.3968 55.9104-37.08928 37.08928-55.72608 83.3536-55.93088 136.43776-0.2048 53.10464 18.08384 99.20512 54.8864 135.9872 37.92896 37.94944 84.02944 56.23808 135.9872 54.8864 54.23104 0.94208 99.328-18.8416 136.3968-55.93088z" p-id="510" fill="#f25d8e"></path></svg>