<?xml version="1.0" standalone="no"?><!DOCTYPE svg PUBLIC "-//W3C//DTD SVG 1.1//EN" "http://www.w3.org/Graphics/SVG/1.1/DTD/svg11.dtd"><svg t="1532675803827" class="icon" style="" viewBox="0 0 1369 1024" version="1.1" xmlns="http://www.w3.org/2000/svg" p-id="5467" xmlns:xlink="http://www.w3.org/1999/xlink" width="26.73828125" height="20"><defs><style type="text/css"></style></defs><path d="M1363.66938 238.985158L1192.468358 11.468011A28.465242 28.465242 0 0 0 1169.737122 0H199.666263a28.465242 28.465242 0 0 0-22.731236 11.468011L5.734006 238.985158a28.260456 28.260456 0 0 0 1.433501 35.837534l655.314914 739.481924a28.465242 28.465242 0 0 0 42.800256 0l655.314914-739.481924a28.260456 28.260456 0 0 0 3.071789-35.837534z m-1187.758283-56.11134a307.178866 307.178866 0 0 0-57.954412 131.677341l-52.629979-60.002272 148.674571-197.618404h137.20656a376.396504 376.396504 0 0 0-174.887168 125.943335z m508.688203 769.585453L547.802311 798.665052h10.239296a1160.931328 1160.931328 0 0 0 293.253424-33.175318z m286.700275-334.210607c-20.478591 71.470283-153.999005 105.66953-292.434281 117.751899-14.130228-52.425193-57.135269-167.310089-165.057444-167.310089a158.913867 158.913867 0 0 0-124.71462 51.196478l-102.392955-114.68011a478.584673 478.584673 0 0 0 81.914364 6.757935c439.060993 0 566.233043 45.462472 595.722215 83.962223a23.140808 23.140808 0 0 1 6.553149 22.321664z m206.833769-221.783141c-61.435773-111.608321-239.39473-112.017893-493.534044-112.017893-171.201021 0-171.201021-57.544841-171.201022-85.395725 0-64.507562 29.693957-141.71185 171.201022-142.121422h4.300504c227.721933 0 280.351912 145.193211 282.399771 151.132002a28.465242 28.465242 0 0 0 27.03174 20.478591h171.201021a28.465242 28.465242 0 0 0 28.465242-28.465241V113.860966l105.874316 140.687921z" fill="#f25d8e" p-id="5468"></path></svg>