<?xml version="1.0" standalone="no"?><!DOCTYPE svg PUBLIC "-//W3C//DTD SVG 1.1//EN" "http://www.w3.org/Graphics/SVG/1.1/DTD/svg11.dtd"><svg t="1532675992152" class="icon" style="" viewBox="0 0 1024 1024" version="1.1" xmlns="http://www.w3.org/2000/svg" p-id="12678" xmlns:xlink="http://www.w3.org/1999/xlink" width="20" height="20"><defs><style type="text/css"></style></defs><path d="M517.081886 96.555831m-96.555831 0a96.555831 96.555831 0 1 0 193.111662 0 96.555831 96.555831 0 1 0-193.111662 0Z" p-id="12679" fill="#f25d8e"></path><path d="M821.995037 546.30273v-101.637718c0-96.555831-58.441687-177.866005-142.292804-213.439206-25.409429-10.163772-53.359801-15.245658-83.851116-15.245657h-157.538462c-33.032258 0-63.523573 7.622829-88.933002 20.327543-78.769231 35.573201-134.669975 116.883375-134.669976 210.898263V553.925558c0 20.327543 17.7866 38.114144 38.114144 38.114144s38.114144-17.7866 38.114144-38.114144v-101.637717c0-20.327543 5.081886-40.655087 12.704715-55.900744 0-2.540943 2.540943-5.081886 5.081886-7.622829 2.540943-2.540943 5.081886-2.540943 7.622829-2.540943 5.081886 0 10.163772 5.081886 10.163771 10.163772v7.622829c-10.163772 83.851117-15.245658 170.243176-15.245657 251.553349-2.540943 160.079404 35.573201 246.471464 68.605459 322.699752 2.540943 5.081886 5.081886 10.163772 5.081886 15.245658 10.163772 15.245658 25.409429 27.950372 43.196029 30.491315h17.786601c30.491315-2.540943 53.359801-27.950372 55.900744-58.441687v-5.081886-7.622829l-5.081886-208.35732c0-12.704715 10.163772-22.868486 22.868487-22.868486s22.868486 10.163772 22.868486 22.868486l-10.163772 195.652605V955.394541c2.540943 30.491315 25.409429 55.900744 58.441688 58.441687h5.081886c5.081886 0 7.622829 0 12.704714-2.540943 20.327543-5.081886 38.114144-17.7866 45.736973-35.573201 2.540943-5.081886 2.540943-10.163772 5.081886-17.7866 33.032258-111.801489 71.146402-180.406948 66.064516-315.076923 0-73.687345-7.622829-165.16129-20.327543-259.176179v-7.622829c0-5.081886 5.081886-10.163772 10.163771-10.163771 2.540943 0 5.081886 0 7.622829 2.540943 2.540943 2.540943 5.081886 5.081886 5.081886 7.622828 10.163772 20.327543 12.704715 40.655087 12.704715 63.523574l5.081885 101.637717v5.081886c2.540943 20.327543 17.7866 35.573201 38.114144 35.573201s38.114144-17.7866 38.114144-38.114144v2.540943z" p-id="12680" fill="#f25d8e"></path></svg>