<?xml version="1.0" standalone="no"?><!DOCTYPE svg PUBLIC "-//W3C//DTD SVG 1.1//EN" "http://www.w3.org/Graphics/SVG/1.1/DTD/svg11.dtd"><svg t="1532531764596" class="icon" style="" viewBox="0 0 1024 1024" version="1.1" xmlns="http://www.w3.org/2000/svg" p-id="3013" xmlns:xlink="http://www.w3.org/1999/xlink" width="12" height="12"><defs><style type="text/css"></style></defs><path d="M791.403971 163.417217c-0.219111-68.401683-33.381733-98.176268-105.879982-98.559201a35461.656966 35461.656966 0 0 0-349.435679 0.054266c-72.334427 0.382933-103.257811 30.540451-103.366343 99.487865-0.219111 133.742973-0.05529 267.485946-0.05529 401.174653 0 135.053546-0.273377 164.719599 0.108532 299.773145 0.219111 63.922185 32.233958 93.751036 100.362264 93.970147 117.789816 0.326619 235.688163 0.273377 353.477978 0 72.225895-0.109556 104.67794-29.502232 104.841762-98.778312 0.65631-267.484922 0.7116-429.636617-0.053242-697.122563z m-321.026957-31.688227h83.809109c9.723839 0 17.700929 7.538868 17.70093 16.718 0 9.287664-7.977091 16.827555-17.70093 16.827555h-83.809109c-9.779129 0-17.700929-7.538868-17.70093-16.827555 0-9.178108 7.921801-16.718 17.70093-16.718z m41.631177 796.50292c-29.174588 0.381909-53.596301-23.001584-53.432479-51.30075 0.109556-28.791655 23.601581-51.246484 54.032476-49.7168 31.632937 1.529685 49.333867 18.24666 51.027373 48.295647 1.585998 28.628858-22.234694 52.33897-51.62737 52.721903z m244.212008-137.567184H268.06956V232.856096h488.150639v557.80863z" fill="#409EFF" p-id="3014"></path></svg>